# Blender v2.77 (sub 0) OBJ File: 'pallet.blend'
# www.blender.org
mtllib pallet.mtl
o Plane.002_Plane.006
v -2.975000 -1.000000 0.725000
v -3.975000 -1.000000 0.725000
v -2.975000 -1.000000 -0.725000
v -3.975000 -1.000000 -0.725000
v -2.975000 -0.220000 0.725000
v -3.975000 -0.220000 0.725000
v -2.975000 -0.220000 -0.725000
v -3.975000 -0.220000 -0.725000
v 2.975000 -1.000000 0.725000
v 3.974999 -1.000000 0.725000
v 2.975000 -1.000000 -0.725000
v 3.974999 -1.000000 -0.725000
v 2.975000 -0.220000 0.725000
v 3.974999 -0.220000 0.725000
v 2.975000 -0.220000 -0.725000
v 3.974999 -0.220000 -0.725000
v 0.725000 -1.000000 0.725000
v -0.725000 -1.000000 0.725000
v 0.725000 -1.000000 -0.725000
v -0.725000 -1.000000 -0.725000
v 0.725000 -0.220000 0.725000
v -0.725000 -0.220000 0.725000
v 0.725000 -0.220000 -0.725000
v -0.725000 -0.220000 -0.725000
v 0.725000 -1.000000 -4.550000
v -0.725000 -1.000000 -4.550000
v 0.725000 -1.000000 -6.000000
v -0.725000 -1.000000 -6.000000
v 0.725000 -0.220000 -4.550000
v -0.725000 -0.220000 -4.550000
v 0.725000 -0.220000 -6.000000
v -0.725000 -0.220000 -6.000000
v 0.725000 -1.000000 6.000000
v -0.725000 -1.000000 6.000000
v 0.725000 -1.000000 4.550000
v -0.725000 -1.000000 4.550000
v 0.725000 -0.220000 6.000000
v -0.725000 -0.220000 6.000000
v 0.725000 -0.220000 4.550000
v -0.725000 -0.220000 4.550000
v -3.975000 -1.000000 -4.550000
v -2.975000 -1.000000 -6.000000
v -2.975000 -1.000000 -4.550000
v -3.975000 -0.220000 -4.550000
v -2.975000 -0.220000 -6.000000
v -2.975000 -0.220000 -4.550000
v 3.975000 -1.000000 -4.550000
v 2.975000 -1.000000 -6.000000
v 2.975000 -1.000000 -4.550000
v 3.975000 -0.220000 -4.550000
v 2.975000 -0.220000 -6.000000
v 2.975000 -0.220000 -4.550000
v -3.975000 -1.000000 4.550000
v -2.975000 -1.000000 6.000000
v -2.975000 -1.000000 4.550000
v -3.975000 -0.220000 4.550000
v -2.975000 -0.220000 6.000000
v -2.975000 -0.220000 4.550000
v 3.975000 -1.000000 4.550000
v 2.975000 -1.000000 6.000000
v 2.975000 -1.000000 4.550000
v 3.975000 -0.220000 4.550000
v 2.975000 -0.220000 6.000000
v 2.975000 -0.220000 4.550000
v -3.825000 -1.000000 6.000000
v -3.975000 -1.000000 5.850000
v -3.975000 -0.220000 5.850000
v -3.825000 -0.220000 6.000000
v 3.975000 -1.000000 5.850000
v 3.825000 -1.000000 6.000000
v 3.825000 -0.220000 6.000000
v 3.975000 -0.220000 5.850000
v 3.825000 -1.000000 -6.000000
v 3.975000 -1.000000 -5.850001
v 3.975000 -0.220000 -5.850001
v 3.825000 -0.220000 -6.000000
v -3.975000 -1.000000 -5.850001
v -3.825000 -1.000000 -6.000000
v -3.825000 -0.220000 -6.000000
v -3.975000 -0.220000 -5.850001
v -3.975000 -0.220000 4.545000
v 3.975000 -0.220000 4.545000
v -3.975000 0.000000 4.545000
v 3.975000 0.000000 4.545000
v -3.825000 -0.220000 5.995000
v -3.975000 -0.220000 5.845000
v -3.975000 0.000000 5.845000
v -3.825000 0.000000 5.995000
v 3.975000 -0.220000 5.845000
v 3.825000 -0.220000 5.995000
v 3.825000 0.000000 5.995000
v 3.975000 0.000000 5.845000
v -3.975000 -0.220000 0.720000
v -3.975000 -0.220000 -0.730000
v 3.975000 -0.220000 -0.730000
v 3.975000 -0.220000 0.720000
v -3.975000 0.000000 0.720000
v -3.975000 0.000000 -0.730000
v 3.975000 0.000000 -0.730000
v 3.975000 0.000000 0.720000
v -3.975000 -0.220000 -4.550000
v 3.975000 -0.220000 -4.550000
v -3.975000 0.000000 -4.550000
v 3.975000 0.000000 -4.550000
v 3.825000 -0.220000 -6.000000
v 3.975000 -0.220000 -5.850000
v 3.975000 0.000000 -5.850000
v 3.825000 0.000000 -6.000000
v -3.975000 -0.220000 -5.850000
v -3.825000 -0.220000 -6.000000
v -3.825000 0.000000 -6.000000
v -3.975000 0.000000 -5.850000
v 2.525000 0.000000 6.000000
v 2.525000 0.000000 -6.000000
v 2.525000 0.220000 6.000000
v 2.525000 0.220000 -6.000000
v 3.975000 0.000000 5.850000
v 3.825000 0.000000 6.000000
v 3.825000 0.220000 6.000000
v 3.975000 0.220000 5.850000
v 3.825000 0.000000 -6.000000
v 3.975000 0.000000 -5.850001
v 3.975000 0.220000 -5.850001
v 3.825000 0.220000 -6.000000
v -2.975000 -1.220000 6.000000
v -2.975000 -1.220000 -6.000000
v -2.975000 -1.000000 6.000000
v -2.975000 -1.000000 -6.000000
v -3.825000 -1.220000 6.000000
v -3.975000 -1.220000 5.850000
v -3.975000 -1.000000 5.850000
v -3.825000 -1.000000 6.000000
v -3.975000 -1.220000 -5.850001
v -3.825000 -1.220000 -6.000000
v -3.825000 -1.000000 -6.000000
v -3.975000 -1.000000 -5.850001
v 0.725000 -1.220000 6.000000
v -0.725000 -1.220000 6.000000
v 0.725000 -1.220000 -6.000000
v -0.725000 -1.220000 -6.000000
v 0.725000 -1.000000 6.000000
v -0.725000 -1.000000 6.000000
v 0.725000 -1.000000 -6.000000
v -0.725000 -1.000000 -6.000000
v -2.525000 0.000000 6.000000
v -2.525000 0.000000 -6.000000
v -2.525000 0.220000 6.000000
v -2.525000 0.220000 -6.000000
v -3.825000 0.000000 6.000000
v -3.975000 0.000000 5.850000
v -3.975000 0.220000 5.850000
v -3.825000 0.220000 6.000000
v -3.975000 0.000000 -5.850001
v -3.825000 0.000000 -6.000000
v -3.825000 0.220000 -6.000000
v -3.975000 0.220000 -5.850001
v -1.125000 0.000000 6.000000
v -2.125000 0.000000 6.000000
v -1.125000 0.000000 -6.000000
v -2.125000 0.000000 -6.000000
v -1.125000 0.220000 6.000000
v -2.125000 0.220000 6.000000
v -1.125000 0.220000 -6.000000
v -2.125000 0.220000 -6.000000
v 2.975000 -1.220000 6.000000
v 2.975000 -1.220000 -6.000000
v 2.975000 -1.000000 6.000000
v 2.975000 -1.000000 -6.000000
v 3.975000 -1.220000 5.850000
v 3.825000 -1.220000 6.000000
v 3.825000 -1.000000 6.000000
v 3.975000 -1.000000 5.850000
v 3.825000 -1.220000 -6.000000
v 3.975000 -1.220000 -5.850001
v 3.975000 -1.000000 -5.850001
v 3.825000 -1.000000 -6.000000
v 2.125000 0.000000 6.000000
v 1.125000 0.000000 6.000000
v 2.125000 0.000000 -6.000000
v 1.125000 0.000000 -6.000000
v 2.125000 0.220000 6.000000
v 1.125000 0.220000 6.000000
v 2.125000 0.220000 -6.000000
v 1.125000 0.220000 -6.000000
v 0.725000 0.000000 6.000000
v -0.725000 0.000000 6.000000
v 0.725000 0.000000 -6.000000
v -0.725000 0.000000 -6.000000
v 0.725000 0.220000 6.000000
v -0.725000 0.220000 6.000000
v 0.725000 0.220000 -6.000000
v -0.725000 0.220000 -6.000000
vt 1.096613 0.970535
vt 0.686161 0.967454
vt 1.089098 0.787277
vt 1.437034 0.967549
vt 1.026581 0.970631
vt 1.429060 0.784407
vt 0.917552 0.968838
vt 0.507330 0.782556
vt 0.917782 0.785638
vt 0.810322 0.969541
vt 0.399640 0.789422
vt 0.810092 0.786340
vt 1.554703 0.965248
vt 1.159739 0.968213
vt 1.151765 0.785071
vt 1.662139 0.963551
vt 1.267175 0.966516
vt 1.259202 0.783375
vt 1.037995 0.731695
vt 1.397604 0.554993
vt 1.402292 0.727318
vt 0.635420 0.330568
vt 0.299520 0.358720
vt 0.299501 0.334603
vt 0.626601 0.483882
vt 0.299099 0.511934
vt 0.299080 0.487817
vt 0.437861 0.048445
vt 0.469736 0.233347
vt 0.438428 0.233444
vt 0.469103 0.027003
vt 0.437795 0.027100
vt 0.283435 0.971707
vt -0.320626 0.976242
vt -0.328600 0.793099
vt 0.079274 0.233443
vt 0.110516 0.212002
vt 0.110581 0.233347
vt 0.078641 0.027099
vt 0.079208 0.212097
vt 1.130257 0.727742
vt 0.466832 0.734259
vt 1.121795 0.550804
vt 0.861725 0.112322
vt 0.892661 0.233378
vt 0.861354 0.233282
vt 0.983040 0.344315
vt 0.662714 0.371752
vt 0.662695 0.348164
vt 0.991254 0.481895
vt 0.662713 0.509430
vt 0.662695 0.485842
vt 0.596973 0.211936
vt 0.565732 0.233378
vt 0.565666 0.212033
vt 0.565295 0.091072
vt 0.893098 0.091072
vt 0.893033 0.112418
vt 0.117233 0.749559
vt 0.108771 0.572622
vt 0.772196 0.566104
vt -0.072910 0.802169
vt -0.692690 0.980718
vt -0.692461 0.797518
vt 0.150915 0.974068
vt -0.468865 0.795519
vt 0.150686 0.790868
vt 0.635420 0.415025
vt 0.299520 0.443178
vt 0.299501 0.419061
vt 0.194337 0.027099
vt 0.226277 0.233347
vt 0.194970 0.233443
vt 0.226277 0.027099
vt 0.258218 0.233347
vt 0.226911 0.233443
vt 0.991254 0.454359
vt 0.662713 0.481895
vt 0.662695 0.458306
vt 0.714932 0.968324
vt 0.095382 0.972975
vt 0.706958 0.785182
vt 0.469801 0.048445
vt 0.501676 0.233347
vt 0.470369 0.233444
vt 0.987380 0.315452
vt 0.667053 0.342889
vt 0.667035 0.319301
vt 0.991254 0.371752
vt 0.662713 0.399288
vt 0.662695 0.375699
vt 0.141954 0.212098
vt 0.110581 0.233347
vt 0.110647 0.212002
vt 0.111214 0.027003
vt 0.501043 0.027003
vt 0.501109 0.048349
vt 0.989918 0.734769
vt 0.985229 0.562444
vt 1.349527 0.558067
vt 0.130012 0.578726
vt -0.416562 0.750481
vt -0.416422 0.572161
vt 0.535885 0.742862
vt -0.127709 0.572360
vt 0.535716 0.565843
vt 0.635420 0.358720
vt 0.299520 0.386873
vt 0.299501 0.362756
vt 0.713259 0.091072
vt 0.745003 0.233282
vt 0.713696 0.233378
vt 0.650076 0.090975
vt 0.680947 0.233378
vt 0.649640 0.233282
vt 0.630118 0.445468
vt 0.294217 0.473620
vt 0.294199 0.449503
vt -0.018912 0.746868
vt 0.636051 0.563413
vt 0.644513 0.740351
vt 0.635420 0.386873
vt 0.299520 0.415025
vt 0.299501 0.390908
vt 0.987490 0.278395
vt 0.667164 0.305832
vt 0.667146 0.282244
vt 0.745068 0.112418
vt 0.776747 0.233282
vt 0.745439 0.233378
vt 0.776310 0.090975
vt 0.745003 0.091072
vt 0.936640 0.745896
vt 0.289801 0.752250
vt 0.281338 0.575313
vt 0.618333 0.233378
vt 0.649575 0.211936
vt 0.649640 0.233282
vt 0.617896 0.091072
vt 0.618267 0.212033
vt -0.331351 0.741787
vt 0.214943 0.556902
vt 0.215083 0.735222
vt 0.408058 0.737741
vt -0.255537 0.567238
vt 0.407888 0.560722
vt 0.635420 0.274263
vt 0.299520 0.302415
vt 0.299501 0.278298
vt 0.893098 0.091072
vt 0.924842 0.233282
vt 0.893535 0.233378
vt 0.533988 0.090975
vt 0.564858 0.233378
vt 0.533551 0.233282
vt 0.991254 0.399288
vt 0.662713 0.426823
vt 0.662695 0.403235
vt 1.444422 0.554068
vt 1.079989 0.722071
vt 1.080124 0.549691
vt 0.011025 0.977393
vt -0.608756 0.798844
vt 0.010795 0.794193
vt 0.635420 0.302415
vt 0.299520 0.330568
vt 0.299501 0.306451
vt 0.143155 0.027003
vt 0.173829 0.233443
vt 0.142522 0.233347
vt 0.405855 0.027100
vt 0.437795 0.233347
vt 0.406488 0.233444
vt 0.991254 0.426823
vt 0.662713 0.454359
vt 0.662695 0.430771
vt 0.694135 0.784312
vt 1.096819 0.806287
vt 0.686366 0.803205
vt 1.034096 0.787372
vt 1.436827 0.803301
vt 1.026376 0.806382
vt 0.507100 0.965757
vt 0.399870 0.972622
vt 1.562217 0.781990
vt 1.562423 0.946238
vt 1.151971 0.949320
vt 1.669654 0.780293
vt 1.669860 0.944542
vt 1.259407 0.947623
vt 1.402171 0.572771
vt 1.037874 0.577147
vt 1.042413 0.559260
vt 0.635439 0.354685
vt 0.626620 0.507999
vt 0.469168 0.048349
vt 0.290950 0.788448
vt 0.291156 0.952697
vt -0.328394 0.957348
vt 0.109948 0.027003
vt 0.474955 0.557158
vt 1.130113 0.577275
vt 0.466688 0.583792
vt 0.983058 0.367904
vt 0.991272 0.505483
vt 0.597039 0.233282
vt 0.596602 0.090975
vt 0.861791 0.090975
vt 0.772341 0.716570
vt 0.764073 0.743205
vt 0.108915 0.723088
vt -0.073140 0.985369
vt -0.468635 0.978719
vt 0.635439 0.439142
vt 0.225644 0.027003
vt 0.257585 0.027003
vt 0.991272 0.477948
vt 0.102897 0.789717
vt 0.714726 0.804075
vt 0.095176 0.808726
vt 0.987398 0.339040
vt 0.991272 0.395341
vt 0.141889 0.233443
vt 0.142522 0.027099
vt 0.469736 0.027099
vt 1.349648 0.712615
vt 1.345108 0.730502
vt 0.985351 0.716991
vt 0.129872 0.757046
vt -0.127540 0.749379
vt 0.635439 0.382837
vt 0.744566 0.090975
vt 0.681384 0.091072
vt 0.630137 0.469585
vt 0.644369 0.589884
vt -0.019056 0.596401
vt -0.010789 0.569767
vt 0.635439 0.410990
vt 0.987509 0.301984
vt 0.776376 0.112321
vt 0.944763 0.568796
vt 0.944907 0.719262
vt 0.281482 0.725779
vt 0.649203 0.090975
vt -0.331491 0.563467
vt -0.255367 0.744258
vt 0.635439 0.298380
vt 0.924405 0.090975
vt 0.565295 0.091072
vt 0.991272 0.422876
vt 1.444287 0.726448
vt -0.608526 0.982044
vt 0.635439 0.326532
vt 0.174462 0.027099
vt 0.437162 0.027003
vt 0.991272 0.450412
vt 0.405855 0.233347
vt 0.373980 0.048445
vt 0.405287 0.048349
vt 0.011798 0.460842
vt 0.258920 0.437033
vt 0.258899 0.463810
vt 0.353974 0.233347
vt 0.322099 0.048445
vt 0.353406 0.048349
vt 0.016481 0.504423
vt 0.011798 0.477701
vt 0.016460 0.477645
vt 0.254237 0.474789
vt 0.258920 0.501510
vt 0.254258 0.501566
vt 0.290158 0.233347
vt 0.258218 0.027099
vt 0.289525 0.027003
vt 0.011798 0.301893
vt 0.258920 0.278084
vt 0.258899 0.304862
vt 0.322099 0.233347
vt 0.290158 0.027099
vt 0.321466 0.027003
vt 0.011819 0.334608
vt 0.258899 0.304862
vt 0.258920 0.331640
vt 0.502244 0.048284
vt 0.532983 0.233378
vt 0.501676 0.233282
vt 0.011819 0.423062
vt 0.258899 0.393316
vt 0.258920 0.420094
vt 0.011819 0.347942
vt 0.016460 0.374776
vt 0.011798 0.374720
vt 0.713259 0.233282
vt 0.681384 0.048380
vt 0.712691 0.048285
vt 0.254258 0.350854
vt 0.258899 0.377688
vt 0.254237 0.377632
vt 0.374547 0.233444
vt 0.011819 0.434064
vt 0.322666 0.233443
vt 0.011819 0.504479
vt 0.258899 0.474732
vt 0.258851 0.233443
vt 0.011819 0.275116
vt 0.290792 0.233443
vt 0.011798 0.307831
vt 0.533551 0.048379
vt 0.011798 0.396285
vt 0.016481 0.347998
vt 0.681952 0.233378
vt 0.258920 0.350910
vt 0.757366 0.751102
vt 0.634757 0.534549
vt 0.756671 0.534191
vt 0.988645 0.725729
vt 0.892714 0.569804
vt 0.988270 0.569430
vt 0.990300 0.469220
vt 0.895397 0.312547
vt 0.990675 0.312921
vt 0.386163 0.235798
vt 0.263554 0.009537
vt 0.385467 0.009163
vt 0.016780 0.236172
vt 0.137998 0.009163
vt 0.138694 0.235798
vt 0.899553 0.211870
vt 0.990464 0.055197
vt 0.990823 0.211496
vt 0.135068 0.943242
vt 0.257461 0.787317
vt 0.256982 0.943616
vt 0.759187 0.236171
vt 0.880405 0.009163
vt 0.881100 0.235798
vt 0.509897 0.751102
vt 0.387288 0.534548
vt 0.509202 0.534191
vt 0.138694 0.751102
vt 0.016085 0.534549
vt 0.137999 0.534191
vt 0.509202 0.236172
vt 0.387984 0.009164
vt 0.509897 0.009538
vt 0.633632 0.235798
vt 0.511023 0.009537
vt 0.632936 0.009163
vt 0.881101 0.492856
vt 0.758492 0.277552
vt 0.880405 0.277196
vt 0.757366 0.235798
vt 0.634757 0.009537
vt 0.756671 0.009163
vt 0.633632 0.751102
vt 0.511023 0.534549
vt 0.632936 0.534191
vt 0.262428 0.492856
vt 0.139819 0.277552
vt 0.261733 0.277196
vt 0.633632 0.492856
vt 0.511023 0.277552
vt 0.632936 0.277196
vt 0.262428 0.751102
vt 0.139819 0.534549
vt 0.261733 0.534191
vt 0.137998 0.493212
vt 0.016780 0.277196
vt 0.138694 0.277552
vt 0.386163 0.751102
vt 0.263554 0.534549
vt 0.385467 0.534191
vt 0.629790 0.787317
vt 0.752327 0.990132
vt 0.630414 0.990506
vt 0.139819 0.009538
vt 0.262428 0.235798
vt 0.140515 0.236172
vt 0.893081 0.318367
vt 0.988734 0.474292
vt 0.893456 0.474666
vt 0.880405 0.534191
vt 0.759187 0.751460
vt 0.758492 0.534548
vt 0.380500 0.786943
vt 0.259066 0.943616
vt 0.258587 0.787317
vt 0.986250 0.338585
vt 0.891290 0.471813
vt 0.890972 0.338959
vt 0.756671 0.277196
vt 0.635453 0.493212
vt 0.634757 0.277552
vt 0.986473 0.566691
vt 0.890542 0.722616
vt 0.890918 0.566317
vt 0.991582 0.061340
vt 0.900617 0.194569
vt 0.900311 0.061714
vt 0.506128 0.787317
vt 0.628665 0.990132
vt 0.506751 0.990506
vt 0.387288 0.277552
vt 0.509897 0.492856
vt 0.387984 0.493212
vt 0.763387 0.806975
vt 0.885780 0.962901
vt 0.763866 0.963275
vt 0.386091 0.470546
vt 0.264249 0.493212
vt 0.264177 0.470902
vt 0.385467 0.277196
vt 0.263554 0.277552
vt 0.133655 0.919797
vt 0.011813 0.943616
vt 0.011741 0.920171
vt 0.011334 0.787317
vt 0.986194 0.315140
vt 0.890916 0.315514
vt 0.504307 0.786943
vt 0.383017 0.990506
vt 0.382393 0.787317
vt 0.988616 0.704460
vt 0.893003 0.727531
vt 0.893060 0.704086
vt 0.893379 0.571231
vt 0.635453 0.751460
vt 0.893090 0.726103
vt 0.895022 0.468846
vt 0.264249 0.236172
vt 0.016085 0.009537
vt 0.899194 0.055571
vt 0.135548 0.786943
vt 0.758492 0.009537
vt 0.387984 0.751460
vt 0.016780 0.751460
vt 0.387288 0.235798
vt 0.511718 0.236172
vt 0.759187 0.493212
vt 0.635453 0.236172
vt 0.511718 0.751460
vt 0.140515 0.493212
vt 0.511718 0.493212
vt 0.140515 0.751460
vt 0.016085 0.492856
vt 0.264249 0.751460
vt 0.751704 0.786943
vt 0.261733 0.009163
vt 0.988359 0.317993
vt 0.881101 0.751102
vt 0.380980 0.943242
vt 0.986568 0.471439
vt 0.757366 0.492856
vt 0.986097 0.722990
vt 0.991887 0.194194
vt 0.628041 0.786943
vt 0.509202 0.277196
vt 0.885301 0.806601
vt 0.386163 0.492856
vt 0.133727 0.943242
vt 0.133247 0.786943
vt 0.504930 0.990132
vt 0.988559 0.727904
vt 0.988935 0.571605
vn 0.000000 -1.000000 0.000000
vn 0.000000 1.000000 0.000000
vn -1.000000 0.000000 0.000000
vn 1.000000 0.000000 0.000000
vn 0.000000 0.000000 1.000000
vn 0.707100 0.000000 0.707100
vn 0.707100 0.000000 -0.707100
vn 0.000000 0.000000 -1.000000
vn -0.707100 0.000000 0.707100
vn -0.707100 0.000000 -0.707100
usemtl pallet_mat
s off
f 81/1/1 82/2/1 85/3/1
f 84/4/2 83/5/2 91/6/2
f 94/7/1 96/8/1 93/9/1
f 99/10/2 97/11/2 100/12/2
f 110/13/1 105/14/1 102/15/1
f 108/16/2 111/17/2 103/18/2
f 114/19/1 117/20/1 113/21/1
f 113/22/3 116/23/3 114/24/3
f 122/25/4 120/26/4 117/27/4
f 118/28/5 115/29/5 113/30/5
f 120/31/6 118/28/6 117/32/6
f 120/33/2 123/34/2 116/35/2
f 122/36/7 124/37/7 123/38/7
f 114/39/8 124/37/8 121/40/8
f 127/41/2 128/42/2 131/43/2
f 134/44/8 128/45/8 126/46/8
f 130/47/3 136/48/3 133/49/3
f 126/50/4 127/51/4 125/52/4
f 132/53/9 130/54/9 129/55/9
f 125/56/5 132/53/5 129/55/5
f 134/44/10 136/57/10 135/58/10
f 133/59/1 126/60/1 125/61/1
f 140/62/1 137/63/1 138/64/1
f 141/65/2 144/66/2 142/67/2
f 138/68/3 144/69/3 140/70/3
f 137/71/5 142/72/5 138/73/5
f 140/74/8 143/75/8 139/76/8
f 139/77/4 141/78/4 137/79/4
f 147/80/2 148/81/2 151/82/2
f 154/83/8 148/84/8 146/85/8
f 150/86/3 156/87/3 153/88/3
f 146/89/4 147/90/4 145/91/4
f 152/92/9 150/93/9 149/94/9
f 145/95/5 152/92/5 149/94/5
f 154/83/10 156/96/10 155/97/10
f 153/98/1 146/99/1 145/100/1
f 160/101/1 157/102/1 158/103/1
f 161/104/2 164/105/2 162/106/2
f 158/107/3 164/108/3 160/109/3
f 157/110/5 162/111/5 158/112/5
f 160/113/8 163/114/8 159/115/8
f 159/116/4 161/117/4 157/118/4
f 166/119/1 169/120/1 165/121/1
f 165/122/3 168/123/3 166/124/3
f 174/125/4 172/126/4 169/127/4
f 170/128/5 167/129/5 165/130/5
f 172/131/6 170/128/6 169/132/6
f 172/133/2 175/134/2 168/135/2
f 174/136/7 176/137/7 175/138/7
f 166/139/8 176/137/8 173/140/8
f 180/141/1 177/142/1 178/143/1
f 181/144/2 184/145/2 182/146/2
f 178/147/3 184/148/3 180/149/3
f 177/150/5 182/151/5 178/152/5
f 180/153/8 183/154/8 179/155/8
f 179/156/4 181/157/4 177/158/4
f 188/159/1 185/160/1 186/161/1
f 189/162/2 192/163/2 190/164/2
f 186/165/3 192/166/3 188/167/3
f 185/168/5 190/169/5 186/170/5
f 188/171/8 191/172/8 187/173/8
f 187/174/4 189/175/4 185/176/4
f 90/177/1 85/3/1 82/2/1
f 86/178/1 81/1/1 85/3/1
f 82/2/1 89/179/1 90/177/1
f 88/180/2 91/6/2 83/5/2
f 92/181/2 84/4/2 91/6/2
f 83/5/2 87/182/2 88/180/2
f 94/7/1 95/183/1 96/8/1
f 99/10/2 98/184/2 97/11/2
f 102/15/1 101/185/1 110/13/1
f 109/186/1 110/13/1 101/185/1
f 105/14/1 106/187/1 102/15/1
f 103/18/2 104/188/2 108/16/2
f 107/189/2 108/16/2 104/188/2
f 111/17/2 112/190/2 103/18/2
f 118/191/1 113/21/1 117/20/1
f 114/19/1 121/192/1 122/193/1
f 122/193/1 117/20/1 114/19/1
f 113/22/3 115/194/3 116/23/3
f 122/25/4 123/195/4 120/26/4
f 118/28/5 119/196/5 115/29/5
f 120/31/6 119/196/6 118/28/6
f 116/35/2 115/197/2 120/33/2
f 119/198/2 120/33/2 115/197/2
f 123/34/2 124/199/2 116/35/2
f 122/36/7 121/40/7 124/37/7
f 114/39/8 116/200/8 124/37/8
f 136/201/2 131/43/2 128/42/2
f 132/202/2 127/41/2 131/43/2
f 128/42/2 135/203/2 136/201/2
f 134/44/8 135/58/8 128/45/8
f 130/47/3 131/204/3 136/48/3
f 126/50/4 128/205/4 127/51/4
f 132/53/9 131/206/9 130/54/9
f 125/56/5 127/207/5 132/53/5
f 134/44/10 133/208/10 136/57/10
f 125/61/1 129/209/1 130/210/1
f 130/210/1 133/59/1 125/61/1
f 134/211/1 126/60/1 133/59/1
f 140/62/1 139/212/1 137/63/1
f 141/65/2 143/213/2 144/66/2
f 138/68/3 142/214/3 144/69/3
f 137/71/5 141/215/5 142/72/5
f 140/74/8 144/216/8 143/75/8
f 139/77/4 143/217/4 141/78/4
f 156/218/2 151/82/2 148/81/2
f 152/219/2 147/80/2 151/82/2
f 148/81/2 155/220/2 156/218/2
f 154/83/8 155/97/8 148/84/8
f 150/86/3 151/221/3 156/87/3
f 146/89/4 148/222/4 147/90/4
f 152/92/9 151/223/9 150/93/9
f 145/95/5 147/224/5 152/92/5
f 154/83/10 153/225/10 156/96/10
f 145/100/1 149/226/1 150/227/1
f 150/227/1 153/98/1 145/100/1
f 154/228/1 146/99/1 153/98/1
f 160/101/1 159/229/1 157/102/1
f 161/104/2 163/230/2 164/105/2
f 158/107/3 162/231/3 164/108/3
f 157/110/5 161/232/5 162/111/5
f 160/113/8 164/233/8 163/114/8
f 159/116/4 163/234/4 161/117/4
f 170/235/1 165/121/1 169/120/1
f 166/119/1 173/236/1 174/237/1
f 174/237/1 169/120/1 166/119/1
f 165/122/3 167/238/3 168/123/3
f 174/125/4 175/239/4 172/126/4
f 170/128/5 171/240/5 167/129/5
f 172/131/6 171/240/6 170/128/6
f 168/135/2 167/241/2 172/133/2
f 171/242/2 172/133/2 167/241/2
f 175/134/2 176/243/2 168/135/2
f 174/136/7 173/140/7 176/137/7
f 166/139/8 168/244/8 176/137/8
f 180/141/1 179/245/1 177/142/1
f 181/144/2 183/246/2 184/145/2
f 178/147/3 182/247/3 184/148/3
f 177/150/5 181/248/5 182/151/5
f 180/153/8 184/249/8 183/154/8
f 179/156/4 183/250/4 181/157/4
f 188/159/1 187/251/1 185/160/1
f 189/162/2 191/252/2 192/163/2
f 186/165/3 190/253/3 192/166/3
f 185/168/5 189/254/5 190/169/5
f 188/171/8 192/255/8 191/172/8
f 187/174/4 191/256/4 189/175/4
usemtl pallet_mat_NONE
f 92/257/4 82/258/4 84/259/4
f 84/260/8 81/261/8 83/262/8
f 83/263/3 86/264/3 87/265/3
f 88/266/9 86/267/9 85/268/9
f 90/269/6 92/270/6 91/271/6
f 88/266/5 90/269/5 91/271/5
f 98/272/3 93/273/3 97/274/3
f 99/275/8 94/276/8 98/277/8
f 100/278/4 95/279/4 99/280/4
f 97/281/5 96/282/5 100/283/5
f 112/284/3 101/285/3 103/286/3
f 103/287/5 102/288/5 104/289/5
f 106/290/7 108/291/7 107/292/7
f 104/293/4 106/294/4 107/295/4
f 110/296/10 112/297/10 111/298/10
f 108/291/8 110/296/8 111/298/8
f 92/257/4 89/299/4 82/258/4
f 84/260/8 82/300/8 81/261/8
f 83/263/3 81/301/3 86/264/3
f 88/266/9 87/302/9 86/267/9
f 90/269/6 89/303/6 92/270/6
f 88/266/5 85/268/5 90/269/5
f 98/272/3 94/304/3 93/273/3
f 99/275/8 95/305/8 94/276/8
f 100/278/4 96/306/4 95/279/4
f 97/281/5 93/307/5 96/282/5
f 112/284/3 109/308/3 101/285/3
f 103/287/5 101/309/5 102/288/5
f 106/290/7 105/310/7 108/291/7
f 104/293/4 102/311/4 106/294/4
f 110/296/10 109/312/10 112/297/10
f 108/291/8 105/310/8 110/296/8
usemtl pallet_box_mat
f 2/313/3 8/314/3 4/315/3
f 1/316/5 6/317/5 2/318/5
f 4/319/8 7/320/8 3/321/8
f 3/322/4 5/323/4 1/324/4
f 16/325/4 10/326/4 12/327/4
f 14/328/5 9/329/5 10/330/5
f 15/331/8 12/332/8 11/333/8
f 13/334/3 11/335/3 9/336/3
f 18/337/3 24/338/3 20/339/3
f 17/340/5 22/341/5 18/342/5
f 20/343/8 23/344/8 19/345/8
f 19/346/4 21/347/4 17/348/4
f 26/349/3 32/350/3 28/351/3
f 25/352/5 30/353/5 26/354/5
f 28/355/8 31/356/8 27/357/8
f 27/358/4 29/359/4 25/360/4
f 34/361/3 40/362/3 36/363/3
f 33/364/5 38/365/5 34/366/5
f 36/367/8 39/368/8 35/369/8
f 35/370/4 37/371/4 33/372/4
f 80/373/3 41/374/3 44/375/3
f 46/376/4 42/377/4 45/378/4
f 44/379/5 43/380/5 46/381/5
f 48/382/3 52/383/3 51/384/3
f 49/385/5 50/386/5 52/387/5
f 73/388/8 51/389/8 76/390/8
f 54/391/4 58/392/4 57/393/4
f 55/394/8 56/395/8 58/396/8
f 65/397/5 57/398/5 68/399/5
f 72/400/4 59/401/4 62/402/4
f 64/403/3 60/404/3 63/405/3
f 62/406/8 61/407/8 64/408/8
f 66/409/9 68/410/9 67/411/9
f 53/412/3 67/411/3 56/413/3
f 70/414/6 72/415/6 71/416/6
f 63/417/5 70/414/5 71/416/5
f 74/418/7 76/390/7 75/419/7
f 47/420/4 75/421/4 50/422/4
f 78/423/10 80/424/10 79/425/10
f 45/426/8 78/423/8 79/425/8
f 2/313/3 6/427/3 8/314/3
f 1/316/5 5/428/5 6/317/5
f 4/319/8 8/429/8 7/320/8
f 3/322/4 7/430/4 5/323/4
f 16/325/4 14/431/4 10/326/4
f 14/328/5 13/432/5 9/329/5
f 15/331/8 16/433/8 12/332/8
f 13/334/3 15/434/3 11/335/3
f 18/337/3 22/435/3 24/338/3
f 17/340/5 21/436/5 22/341/5
f 20/343/8 24/437/8 23/344/8
f 19/346/4 23/438/4 21/347/4
f 26/349/3 30/439/3 32/350/3
f 25/352/5 29/440/5 30/353/5
f 28/355/8 32/441/8 31/356/8
f 27/358/4 31/442/4 29/359/4
f 34/361/3 38/443/3 40/362/3
f 33/364/5 37/444/5 38/365/5
f 36/367/8 40/445/8 39/368/8
f 35/370/4 39/446/4 37/371/4
f 80/373/3 77/447/3 41/374/3
f 46/376/4 43/448/4 42/377/4
f 44/379/5 41/449/5 43/380/5
f 48/382/3 49/450/3 52/383/3
f 49/385/5 47/451/5 50/386/5
f 73/388/8 48/452/8 51/389/8
f 54/391/4 55/453/4 58/392/4
f 55/394/8 53/454/8 56/395/8
f 65/397/5 54/455/5 57/398/5
f 72/400/4 69/456/4 59/401/4
f 64/403/3 61/457/3 60/404/3
f 62/406/8 59/458/8 61/407/8
f 66/409/9 65/459/9 68/410/9
f 53/412/3 66/409/3 67/411/3
f 70/414/6 69/460/6 72/415/6
f 63/417/5 60/461/5 70/414/5
f 74/418/7 73/388/7 76/390/7
f 47/420/4 74/462/4 75/421/4
f 78/423/10 77/463/10 80/424/10
f 45/426/8 42/464/8 78/423/8
